<svg version="1.1" id="Layer_1" xmlns="http://www.w3.org/2000/svg" x="0" y="0" viewBox="0 0 160 62" xml:space="preserve"><path d="M73.8 51.9c-1.9 0-3.5 1.3-3.9 3.1h-1.4v2.4H70c.6 1.6 2.1 2.8 3.8 2.8 1.9 0 3.6-1.4 4-3.3h5.5v2.7h1.9v-1.5h1.1v2.1h1.9v-2.1h.9v2.2H91v-3.4h.7v-2.4H77.6c-.6-1.5-2.1-2.6-3.8-2.6zm2 4.2c0 1.1-.9 2.1-2 2.1s-2-.9-2-2.1c0-1.1.9-2.1 2-2.1s2 .9 2 2.1zM6.9 1.9H1.8v17.9h2.9v-6.5h2.2c4 0 6.4-2.2 6.4-5.7 0-3.6-2.4-5.7-6.4-5.7zM4.7 4.7h2.1c3.2 0 3.6 1.5 3.6 2.9 0 1.3-.4 2.9-3.6 2.9H4.7V4.7zm21 7.5H33V9.3h-7.3V4.7h8.1V1.9h-11v17.8h11.4v-2.8h-8.5v-4.7zm29.7-4.7C55.4 4 53 1.8 49 1.8h-5.1v17.9h2.9v-6.6h2.7l3.7 6.6h3.4l-4.2-7.3c1.9-.9 3-2.6 3-4.9zm-8.6-2.8h2.1c3.1 0 3.5 1.5 3.5 2.8 0 1.2-.4 2.8-3.5 2.8h-2.1V4.7zm31.4 10c-1.1 1.5-2.8 2.4-4.8 2.4-3.5 0-6-2.6-6-6.2s2.5-6.3 6-6.3c2 0 3.6.8 4.6 2.3l.6.7 2.3-1.7-.5-.8c-1.5-2.2-4-3.4-7-3.4-5.1 0-8.9 3.9-8.9 9.1s3.8 9.1 8.9 9.1c3 0 5.6-1.3 7.1-3.6l.5-.8-2.3-1.7-.5.9zm12-12.8h2.9v17.9h-2.9V1.9zM110 14.2l-4.8-12.3h-3.1l7.1 18h1.6l7-18h-3L110 14.2zm20.4-12.5l-7 18h3l1.6-4.2h6.3l1.7 4.2h3.1l-7.1-18h-1.6zm-1.3 10.9l2-5.3 2 5.3h-4zm21.8 4.3v-15H148v17.8h10.3v-2.8h-7.4zM4.5 39.1c-.5 0-1-.1-1.5-.3-.5-.2-.9-.4-1.3-.8l.7-.8c.3.3.6.5 1 .6.3.1.7.2 1.1.2.4 0 .6-.1.9-.2.2-.2.3-.4.3-.6 0-.1 0-.2-.1-.3 0-.1-.1-.2-.2-.3-.1-.1-.3-.2-.5-.2-.2-.1-.4-.1-.8-.2s-.7-.2-.9-.3c-.3-.1-.5-.2-.7-.4-.2-.1-.3-.3-.4-.5-.1-.2-.1-.5-.1-.8 0-.3.1-.5.2-.8s.3-.4.5-.6c.2-.2.4-.3.7-.4.3-.1.6-.1.9-.1.5 0 .9.1 1.3.2s.8.3 1.1.6L6 34c-.3-.2-.6-.4-.9-.5-.3-.1-.6-.2-.9-.2-.3 0-.6.1-.8.2-.2.2-.3.3-.3.6 0 .1 0 .2.1.3 0 .1.1.2.2.3.1.1.3.2.5.2.2.1.5.1.8.2.3.1.7.2.9.3.3.1.5.2.7.4.2.2.3.3.4.5.1.2.1.4.1.7 0 .3-.1.6-.2.8-.1.2-.3.5-.5.6-.1.3-.4.5-.7.6-.3 0-.6.1-.9.1zm7.3 0c-.4 0-.8-.1-1.2-.2-.3-.1-.6-.3-.9-.6s-.4-.6-.6-.9c-.1-.3-.1-.7-.1-1.2v-3.8h1.2v3.8c0 .6.1 1.1.4 1.4.3.3.7.5 1.2.5s.9-.2 1.2-.5.4-.8.4-1.4v-3.8h1.2v3.8c0 .5-.1.9-.2 1.3s-.3.7-.6.9-.5.4-.9.6c-.3 0-.7.1-1.1.1zm5.3-6.8h3c.8 0 1.3.2 1.7.6.3.3.4.7.4 1.1 0 .2 0 .4-.1.5-.1.2-.1.3-.2.4l-.3.3c-.1.1-.2.2-.4.2.2.1.4.2.5.2.2.1.3.2.4.3.1.1.2.3.3.4s.1.4.1.6c0 .3-.1.6-.2.8-.1.2-.3.4-.5.6-.2.2-.5.3-.8.3-.3.1-.6.1-1 .1h-3.1c.2.3.2-6.4.2-6.4zm2.8 2.9c.4 0 .7-.1.9-.2.2-.1.3-.4.3-.7 0-.3-.1-.5-.3-.6-.2-.1-.5-.2-.9-.2h-1.7v1.8l1.7-.1zm.3 2.8c.4 0 .7-.1.9-.2.2-.2.3-.4.3-.7 0-.3-.1-.5-.3-.7s-.6-.2-1-.2h-1.8V38h1.9zm4.1-5.7h1.3l2 5.1 2-5.1h1.3L28.1 39h-1l-2.8-6.7zm8.5 0h4.9v1.1H34v1.7h3.3v1.1H34V38h3.8v1h-5v-6.7zm7.2 0h3c.4 0 .8.1 1.1.2.3.1.6.3.8.5.2.2.3.4.4.6.1.2.1.5.1.8 0 .3 0 .5-.1.7l-.3.6c-.1.2-.3.3-.5.4l-.6.3 1.8 2.5h-1.4l-1.6-2.3h-1.4V39H40v-6.7zm2.9 3.3c.4 0 .8-.1 1-.3.2-.2.4-.5.4-.8 0-.4-.1-.6-.4-.8s-.6-.3-1-.3h-1.7v2.2h1.7zm6.5-2.2h-2.1v-1.1h5.4v1.1h-2.1V39h-1.2v-5.6zm5.4-1.1H56V39h-1.2v-6.7zm3.8 0h1.1l3.6 4.6v-4.6h1.2V39h-1l-3.7-4.7V39h-1.2v-6.7zm11.5 6.8c-.5 0-1-.1-1.4-.3s-.8-.4-1.1-.7c-.3-.3-.5-.7-.7-1.1-.2-.4-.2-.9-.2-1.4 0-.5.1-.9.3-1.3s.4-.8.7-1.1c.3-.3.7-.6 1.1-.7s.9-.3 1.4-.3c.3 0 .6 0 .8.1.2 0 .5.1.7.2l.6.3c.2.1.4.2.5.4l-.8.8c-.1-.1-.3-.2-.4-.3-.1-.1-.3-.2-.4-.2-.1-.1-.3-.1-.5-.1s-.4-.1-.6-.1c-.3 0-.6.1-.9.2s-.5.3-.7.5c-.2.2-.3.5-.5.7-.1.3-.2.6-.2.9 0 .3.1.7.2 1s.3.5.5.8c.2.2.4.4.7.5.3.1.6.2.9.2.3 0 .6 0 .9-.1.3-.1.5-.2.7-.4v-1.2H70v-1h2.8v2.8c-.2.1-.3.3-.5.4l-.6.3c-.2.1-.5.1-.7.1-.3.1-.6.1-.9.1zm10.5-5.7h-2.1v-1.1h5.4v1.1h-2.1V39h-1.2v-5.6zm5.4-1.1h1.2v2.8h3.2v-2.8h1.2V39h-1.2v-2.8h-3.2V39H86v-6.7zm8.1 0H99v1.1h-3.8v1.7h3.3v1.1h-3.3V38H99v1h-5c.1 0 .1-6.7.1-6.7zm14 6.8c-.5 0-.9-.1-1.3-.3-.4-.2-.8-.4-1.1-.7s-.5-.7-.7-1.1c-.2-.4-.3-.9-.3-1.3 0-.5.1-.9.3-1.3.2-.4.4-.8.7-1.1s.7-.6 1.1-.7c.4-.2.9-.3 1.4-.3.3 0 .6 0 .8.1.2.1.5.1.7.2l.6.3c.2.1.3.3.5.4l-.8.9c-.3-.2-.5-.4-.8-.6-.3-.2-.6-.2-1-.2-.3 0-.6.1-.9.2-.3.1-.5.3-.7.5s-.3.5-.5.7c-.1.3-.2.6-.2.9 0 .3.1.6.2.9s.3.5.5.8c.2.2.4.4.7.5.3.1.6.2.9.2.4 0 .8-.1 1-.2l.9-.6.8.8c-.2.2-.4.3-.5.5s-.4.3-.6.4c-.2.1-.5.2-.7.2-.4-.1-.7-.1-1-.1zm4.8-6.8h1.2v5.6h3.5V39h-4.7v-6.7zm9.1 0h1.1L126 39h-1.2l-.7-1.6H121l-.7 1.6H119l3-6.7zm1.6 4.1l-1.1-2.7-1.1 2.7h2.2zm6.7 2.7c-.5 0-1-.1-1.5-.3-.5-.2-.9-.4-1.3-.8l.7-.8c.3.3.6.5 1 .6.3.1.7.2 1.1.2.4 0 .6-.1.9-.2.2-.2.3-.4.3-.6 0-.1 0-.2-.1-.3 0-.1-.1-.2-.2-.3-.1-.1-.3-.2-.5-.2-.2-.1-.4-.1-.8-.2s-.7-.2-.9-.3c-.3-.1-.5-.2-.7-.4-.2-.1-.3-.3-.4-.5-.1-.2-.1-.5-.1-.8 0-.3.1-.5.2-.8s.3-.4.5-.6c.2-.2.4-.3.7-.4s.6-.1.9-.1c.5 0 .9.1 1.3.2s.8.3 1.1.6l-.6.9c-.3-.2-.6-.4-.9-.5-.3-.1-.6-.2-.9-.2-.3 0-.6.1-.8.2-.2.2-.3.3-.3.6 0 .1 0 .2.1.3 0 .1.1.2.2.3.1.1.3.2.5.2.2.1.5.1.8.2.4.1.7.2.9.3.3.1.5.2.7.4.2.2.3.3.4.5.1.2.1.4.1.7 0 .3-.1.6-.2.8s-.3.5-.5.6c-.2.2-.5.3-.7.4s-.6.3-1 .3zm6.9 0c-.5 0-1-.1-1.5-.3-.5-.2-.9-.4-1.3-.8l.7-.8c.3.3.6.5 1 .6.3.1.7.2 1.1.2.4 0 .6-.1.9-.2.2-.2.3-.4.3-.6 0-.1 0-.2-.1-.3 0-.1-.1-.2-.2-.3-.1-.1-.3-.2-.5-.2-.2-.1-.4-.1-.8-.2s-.7-.2-.9-.3c-.3-.1-.5-.2-.7-.4-.2-.1-.3-.3-.4-.5-.1-.2-.1-.5-.1-.8 0-.3.1-.5.2-.8s.3-.4.5-.6c.2-.2.4-.3.7-.4s.6-.1.9-.1c.5 0 .9.1 1.3.2s.8.3 1.1.6l-.6.9c-.3-.2-.6-.4-.9-.5-.3-.1-.6-.2-.9-.2-.3 0-.6.1-.8.2-.2.2-.3.3-.3.6 0 .1 0 .2.1.3 0 .1.1.2.2.3.1.1.3.2.5.2.2.1.5.1.8.2.4.1.7.2.9.3.3.1.5.2.7.4.2.2.3.3.4.5.1.2.1.4.1.7 0 .3-.1.6-.2.8s-.3.5-.5.6c-.2.2-.5.3-.7.4s-.6.3-1 .3zm4.7-6.8h1.2V39h-1.2v-6.7zm6.9 6.8c-.5 0-.9-.1-1.4-.3-.4-.2-.8-.4-1.1-.7s-.5-.7-.7-1.1c-.2-.4-.3-.9-.3-1.3 0-.5.1-.9.3-1.3.2-.4.4-.8.7-1.1s.7-.6 1.1-.7c.4-.2.9-.3 1.4-.3.3 0 .6 0 .8.1.2.1.5.1.7.2l.6.3c.2.1.3.3.5.4l-.8.9c-.3-.2-.5-.4-.8-.6-.3-.2-.6-.2-1-.2-.3 0-.6.1-.9.2-.3.1-.5.3-.7.5s-.3.5-.5.7c-.1.3-.2.6-.2.9 0 .3.1.6.2.9s.3.5.5.8c.2.2.4.4.7.5.3.1.6.2.9.2.4 0 .8-.1 1-.2l.9-.6.8.8c-.2.2-.4.3-.5.5s-.4.3-.6.4c-.2.1-.5.2-.7.2-.3-.1-.6-.1-.9-.1zm7.1 0c-.5 0-1-.1-1.5-.3-.5-.2-.9-.4-1.3-.8l.7-.8c.3.3.6.5 1 .6.3.1.7.2 1.1.2.4 0 .6-.1.9-.2.2-.2.3-.4.3-.6 0-.1 0-.2-.1-.3 0-.1-.1-.2-.2-.3-.1-.1-.3-.2-.5-.2-.2-.1-.4-.1-.8-.2s-.7-.2-.9-.3c-.3-.1-.5-.2-.7-.4-.2-.1-.3-.3-.4-.5-.1-.2-.1-.5-.1-.8 0-.3.1-.5.2-.8s.3-.4.5-.6c.2-.2.4-.3.7-.4s.6-.1.9-.1c.5 0 .9.1 1.3.2s.8.3 1.1.6l-.6.9c-.3-.2-.6-.4-.9-.5-.3-.1-.6-.2-.9-.2-.3 0-.6.1-.8.2-.2.2-.3.3-.3.6 0 .1 0 .2.1.3 0 .1.1.2.2.3.1.1.3.2.5.2.2.1.5.1.8.2.4.1.7.2.9.3.3.1.5.2.7.4.2.2.3.3.4.5.1.2.1.4.1.7 0 .3-.1.6-.2.8s-.3.5-.5.6c-.2.2-.5.3-.7.4s-.6.3-1 .3z" fill="#fff"/></svg>